<svg width="26" height="27" viewBox="0 0 26 27" fill="none" xmlns="http://www.w3.org/2000/svg">
<rect y="0.828125" width="25.9992" height="25.3396" rx="5.13346" fill="#197278"/>
<g clip-path="url(#clip0_4075_5204)">
<path d="M5.125 6.74609C3.88398 6.74609 2.875 7.75508 2.875 8.99609V17.9961C2.875 19.2371 3.88398 20.2461 5.125 20.2461H20.875C22.116 20.2461 23.125 19.2371 23.125 17.9961V8.99609C23.125 7.75508 22.116 6.74609 20.875 6.74609H5.125ZM12.4375 11.2461H20.3125C20.6219 11.2461 20.875 11.4992 20.875 11.8086C20.875 12.118 20.6219 12.3711 20.3125 12.3711H12.4375C12.1281 12.3711 11.875 12.118 11.875 11.8086C11.875 11.4992 12.1281 11.2461 12.4375 11.2461ZM11.875 15.1836C11.875 14.8742 12.1281 14.6211 12.4375 14.6211H20.3125C20.6219 14.6211 20.875 14.8742 20.875 15.1836C20.875 15.493 20.6219 15.7461 20.3125 15.7461H12.4375C12.1281 15.7461 11.875 15.493 11.875 15.1836ZM8.64414 10.1211V10.3426C8.87617 10.3848 9.22773 10.4551 9.38242 10.4973C9.75859 10.5957 9.98008 10.9824 9.88164 11.3586C9.7832 11.7348 9.39648 11.9562 9.02031 11.8578C8.88672 11.8227 8.40859 11.7277 8.25742 11.7066C7.82852 11.6398 7.47695 11.6961 7.25195 11.798C7.03047 11.9 6.97422 12.016 6.96367 12.0828C6.94258 12.2023 6.96367 12.248 6.96719 12.2586C6.97773 12.2762 7.00234 12.3219 7.09375 12.3816C7.3082 12.5293 7.6457 12.6348 8.14492 12.7824L8.17305 12.7895C8.59844 12.9195 9.16797 13.0883 9.59336 13.4012C9.82891 13.5734 10.0504 13.802 10.1875 14.1219C10.3281 14.4418 10.3562 14.7934 10.293 15.1555C10.177 15.8234 9.73398 16.2805 9.18203 16.516C9.00977 16.5898 8.83047 16.6426 8.64062 16.6777V16.8711C8.64062 17.2613 8.32422 17.5777 7.93398 17.5777C7.54375 17.5777 7.22734 17.2613 7.22734 16.8711V16.6461C6.89336 16.5688 6.45742 16.4211 6.17969 16.3262C6.11992 16.3051 6.06719 16.2875 6.025 16.2734C5.65586 16.1504 5.45898 15.7531 5.57852 15.384C5.69805 15.0148 6.09883 14.818 6.46797 14.9375C6.53828 14.9621 6.61211 14.9867 6.69297 15.0113C7.02695 15.1238 7.40313 15.2539 7.61406 15.2891C8.06406 15.3594 8.41211 15.3137 8.62656 15.2223C8.81992 15.1414 8.88672 15.0359 8.90781 14.9129C8.93242 14.7723 8.91133 14.7055 8.90078 14.6773C8.88672 14.6457 8.85508 14.6 8.7707 14.5367C8.56328 14.3855 8.23281 14.273 7.74062 14.1254L7.66328 14.1008C7.25195 13.9777 6.71406 13.816 6.30625 13.5383C6.07422 13.3801 5.84219 13.1621 5.69805 12.8527C5.55039 12.5363 5.51523 12.1918 5.57852 11.8332C5.69102 11.1898 6.14805 10.7469 6.67188 10.5078C6.84766 10.427 7.03398 10.3672 7.23086 10.3285V10.1176C7.23086 9.72734 7.54727 9.41094 7.9375 9.41094C8.32773 9.41094 8.64414 9.72734 8.64414 10.1176V10.1211Z" fill="white"/>
</g>
<defs>
<clipPath id="clip0_4075_5204">
<rect width="20.25" height="18" fill="white" transform="translate(2.875 4.49609)"/>
</clipPath>
</defs>
</svg>
