<svg width="19" height="20" viewBox="0 0 19 20" fill="none" xmlns="http://www.w3.org/2000/svg">
<path d="M2.4985 5.83398V0.833984H14.5835L17.5002 3.75065V19.1673H12.5002M13.3335 0.833984V5.00065H17.5002M3.75016 13.7507L6.66683 10.834L9.5835 13.7507M6.66683 11.2507V16.6673M6.66683 19.1673C8.21393 19.1673 9.69766 18.5527 10.7916 17.4588C11.8856 16.3648 12.5002 14.8811 12.5002 13.334C12.5002 11.7869 11.8856 10.3032 10.7916 9.2092C9.69766 8.11523 8.21393 7.50065 6.66683 7.50065C5.11973 7.50065 3.636 8.11523 2.54204 9.2092C1.44808 10.3032 0.833496 11.7869 0.833496 13.334C0.833496 14.8811 1.44808 16.3648 2.54204 17.4588C3.636 18.5527 5.11973 19.1673 6.66683 19.1673Z" stroke="white" stroke-width="2"/>
</svg>
