<svg width="14" height="14" viewBox="0 0 14 14" fill="none" xmlns="http://www.w3.org/2000/svg">
<mask id="mask0_7117_40951" style="mask-type:alpha" maskUnits="userSpaceOnUse" x="0" y="0" width="14" height="14">
<rect width="14" height="14" fill="#D9D9D9"/>
</mask>
<g mask="url(#mask0_7117_40951)">
<path d="M6.99984 4.66797L4.08317 7.58464L4.89984 8.4013L6.4165 6.89922V12.8346H7.58317V6.89922L9.09984 8.4013L9.9165 7.58464L6.99984 4.66797ZM2.129 10.2096C1.81789 9.73325 1.5797 9.22283 1.41442 8.67839C1.24914 8.13394 1.1665 7.57491 1.1665 7.0013C1.1665 6.19436 1.31963 5.43602 1.62588 4.7263C1.93213 4.01658 2.34775 3.39922 2.87275 2.87422C3.39775 2.34922 4.01511 1.93359 4.72484 1.62734C5.43456 1.32109 6.19289 1.16797 6.99984 1.16797C7.80678 1.16797 8.56512 1.32109 9.27484 1.62734C9.98456 1.93359 10.6019 2.34922 11.1269 2.87422C11.6519 3.39922 12.0675 4.01658 12.3738 4.7263C12.68 5.43602 12.8332 6.19436 12.8332 7.0013C12.8332 7.57491 12.7505 8.13394 12.5853 8.67839C12.42 9.22283 12.1818 9.73325 11.8707 10.2096L11.0248 9.3638C11.2387 9.00408 11.3991 8.62491 11.5061 8.2263C11.613 7.82769 11.6665 7.41936 11.6665 7.0013C11.6665 5.69852 11.2144 4.59505 10.3103 3.69089C9.40609 2.78672 8.30261 2.33464 6.99984 2.33464C5.69706 2.33464 4.59359 2.78672 3.68942 3.69089C2.78525 4.59505 2.33317 5.69852 2.33317 7.0013C2.33317 7.41936 2.38664 7.82769 2.49359 8.2263C2.60053 8.62491 2.76095 9.00408 2.97484 9.3638L2.129 10.2096Z" fill="#003566"/>
</g>
</svg>
