<svg width="14" height="18" viewBox="0 0 14 18" fill="none" xmlns="http://www.w3.org/2000/svg">
<path d="M5.02075 9.91669L5.77075 7.52085L3.79158 5.97919H6.20825L6.99992 3.50002L7.77075 5.97919H10.2083L8.22909 7.52085L8.95825 9.91669L6.99992 8.43752L5.02075 9.91669ZM2.08325 17.6667V11.3334C1.45825 10.6806 1.01034 9.9653 0.739502 9.18752C0.468669 8.40974 0.333252 7.62502 0.333252 6.83335C0.333252 4.94446 0.972141 3.36113 2.24992 2.08335C3.5277 0.805576 5.11103 0.166687 6.99992 0.166687C8.88881 0.166687 10.4721 0.805576 11.7499 2.08335C13.0277 3.36113 13.6666 4.94446 13.6666 6.83335C13.6666 7.62502 13.5312 8.40974 13.2603 9.18752C12.9895 9.9653 12.5416 10.6806 11.9166 11.3334V17.6667L6.99992 16.0209L2.08325 17.6667ZM6.99992 12.25C8.51381 12.25 9.79506 11.7257 10.8437 10.6771C11.8923 9.62849 12.4166 8.34724 12.4166 6.83335C12.4166 5.31946 11.8923 4.03821 10.8437 2.9896C9.79506 1.94099 8.51381 1.41669 6.99992 1.41669C5.48603 1.41669 4.20478 1.94099 3.15617 2.9896C2.10756 4.03821 1.58325 5.31946 1.58325 6.83335C1.58325 8.34724 2.10756 9.62849 3.15617 10.6771C4.20478 11.7257 5.48603 12.25 6.99992 12.25ZM3.33325 15.9167L6.99992 14.7709L10.6666 15.9167V12.3542C10.111 12.757 9.51381 13.0486 8.87492 13.2292C8.23603 13.4097 7.61103 13.5 6.99992 13.5C6.38881 13.5 5.76381 13.4097 5.12492 13.2292C4.48603 13.0486 3.88881 12.757 3.33325 12.3542V15.9167Z" fill="#333333"/>
</svg>
