<svg width="26" height="27" viewBox="0 0 26 27" fill="none" xmlns="http://www.w3.org/2000/svg">
<rect y="0.828125" width="25.9992" height="25.3396" rx="5.13346" fill="#7FE8FF"/>
<path d="M2.36568 10.2737H3.98811L5.7017 14.4544H5.77461L7.4882 10.2737H9.11063V16.4961H7.83456V12.4461H7.78291L6.17263 16.4657H5.30368L3.6934 12.4309H3.64175V16.4961H2.36568V10.2737ZM15.9126 13.3849C15.9126 14.0635 15.7839 14.6407 15.5267 15.1167C15.2715 15.5927 14.9231 15.9563 14.4815 16.2075C14.042 16.4566 13.5478 16.5812 12.9989 16.5812C12.4459 16.5812 11.9496 16.4556 11.5101 16.2044C11.0706 15.9533 10.7232 15.5897 10.468 15.1137C10.2128 14.6377 10.0852 14.0614 10.0852 13.3849C10.0852 12.7064 10.2128 12.1291 10.468 11.6531C10.7232 11.1771 11.0706 10.8145 11.5101 10.5654C11.9496 10.3142 12.4459 10.1886 12.9989 10.1886C13.5478 10.1886 14.042 10.3142 14.4815 10.5654C14.9231 10.8145 15.2715 11.1771 15.5267 11.6531C15.7839 12.1291 15.9126 12.7064 15.9126 13.3849ZM14.5788 13.3849C14.5788 12.9454 14.5129 12.5747 14.3813 12.2729C14.2516 11.9711 14.0683 11.7422 13.8313 11.5863C13.5944 11.4303 13.3169 11.3523 12.9989 11.3523C12.6809 11.3523 12.4034 11.4303 12.1664 11.5863C11.9294 11.7422 11.7451 11.9711 11.6134 12.2729C11.4838 12.5747 11.419 12.9454 11.419 13.3849C11.419 13.8244 11.4838 14.1951 11.6134 14.4969C11.7451 14.7987 11.9294 15.0276 12.1664 15.1836C12.4034 15.3395 12.6809 15.4175 12.9989 15.4175C13.3169 15.4175 13.5944 15.3395 13.8313 15.1836C14.0683 15.0276 14.2516 14.7987 14.3813 14.4969C14.5129 14.1951 14.5788 13.8244 14.5788 13.3849ZM16.8871 10.2737H18.5095L20.2231 14.4544H20.296L22.0096 10.2737H23.632V16.4961H22.356V12.4461H22.3043L20.694 16.4657H19.8251L18.2148 12.4309H18.1632V16.4961H16.8871V10.2737Z" fill="#F7F7F7"/>
</svg>
