<svg width="64" height="64" viewBox="0 0 64 64" fill="none" xmlns="http://www.w3.org/2000/svg">
<circle cx="32" cy="32" r="32" fill="#5A189A"/>
<path d="M32.0002 32C34.9468 32 37.3335 29.6134 37.3335 26.6667C37.3335 23.72 34.9468 21.3334 32.0002 21.3334C29.0535 21.3334 26.6668 23.72 26.6668 26.6667C26.6668 29.6134 29.0535 32 32.0002 32ZM32.0002 34.6667C28.4402 34.6667 21.3335 36.4534 21.3335 40V41.3334C21.3335 42.0667 21.9335 42.6667 22.6668 42.6667H41.3335C42.0668 42.6667 42.6668 42.0667 42.6668 41.3334V40C42.6668 36.4534 35.5602 34.6667 32.0002 34.6667Z" fill="white"/>
</svg>
