<svg width="26" height="27" viewBox="0 0 26 27" fill="none" xmlns="http://www.w3.org/2000/svg">
<rect y="0.828125" width="25.9992" height="25.3396" rx="5.13346" fill="#9296FF"/>
<mask id="mask0_4075_5216" style="mask-type:alpha" maskUnits="userSpaceOnUse" x="4" y="5" width="18" height="17">
<rect x="4.33398" y="5.05078" width="17.3328" height="16.8931" fill="#D9D9D9"/>
</mask>
<g mask="url(#mask0_4075_5216)">
<path d="M7.18361 16.4297V10.2073H9.40155C9.88565 10.2073 10.2867 10.2954 10.6047 10.4716C10.9227 10.6479 11.1607 10.8889 11.3187 11.1947C11.4767 11.4986 11.5557 11.8409 11.5557 12.2217C11.5557 12.6045 11.4757 12.9488 11.3157 13.2547C11.1577 13.5585 10.9187 13.7996 10.5986 13.9778C10.2806 14.154 9.88058 14.2421 9.39851 14.2421H7.8733V13.4461H9.31344C9.61929 13.4461 9.86742 13.3934 10.0578 13.2881C10.2482 13.1808 10.388 13.0349 10.4771 12.8506C10.5662 12.6663 10.6108 12.4566 10.6108 12.2217C10.6108 11.9867 10.5662 11.7781 10.4771 11.5958C10.388 11.4135 10.2472 11.2707 10.0548 11.1674C9.86438 11.0641 9.61321 11.0125 9.30128 11.0125H8.12244V16.4297H7.18361ZM18.0614 13.3185C18.0614 13.9829 17.9398 14.5541 17.6968 15.0321C17.4537 15.5081 17.1205 15.8747 16.6972 16.1319C16.2759 16.3872 15.7969 16.5148 15.2601 16.5148C14.7213 16.5148 14.2402 16.3872 13.8169 16.1319C13.3956 15.8747 13.0634 15.5071 12.8204 15.029C12.5773 14.551 12.4558 13.9808 12.4558 13.3185C12.4558 12.6541 12.5773 12.0839 12.8204 11.608C13.0634 11.1299 13.3956 10.7633 13.8169 10.5081C14.2402 10.2509 14.7213 10.1222 15.2601 10.1222C15.7969 10.1222 16.2759 10.2509 16.6972 10.5081C17.1205 10.7633 17.4537 11.1299 17.6968 11.608C17.9398 12.0839 18.0614 12.6541 18.0614 13.3185ZM17.1317 13.3185C17.1317 12.8121 17.0496 12.3858 16.8856 12.0394C16.7235 11.691 16.5007 11.4277 16.2171 11.2494C15.9356 11.0692 15.6166 10.979 15.2601 10.979C14.9016 10.979 14.5815 11.0692 14.3 11.2494C14.0185 11.4277 13.7956 11.691 13.6316 12.0394C13.4695 12.3858 13.3885 12.8121 13.3885 13.3185C13.3885 13.8249 13.4695 14.2523 13.6316 14.6006C13.7956 14.947 14.0185 15.2103 14.3 15.3906C14.5815 15.5688 14.9016 15.658 15.2601 15.658C15.6166 15.658 15.9356 15.5688 16.2171 15.3906C16.5007 15.2103 16.7235 14.947 16.8856 14.6006C17.0496 14.2523 17.1317 13.8249 17.1317 13.3185Z" fill="#F7F7F7"/>
</g>
</svg>
