<svg width="17" height="16" viewBox="0 0 17 16" fill="none" xmlns="http://www.w3.org/2000/svg">
<mask id="mask0_7084_41550" style="mask-type:alpha" maskUnits="userSpaceOnUse" x="0" y="0" width="17" height="16">
<rect x="0.5" width="16" height="16" fill="#D9D9D9"/>
</mask>
<g mask="url(#mask0_7084_41550)">
<path d="M7.50016 9.33301H12.5002V7.99967H8.8335L7.50016 9.33301ZM4.50016 9.33301H6.1335L10.0668 5.43301C10.1335 5.36634 10.1668 5.28301 10.1668 5.18301C10.1668 5.08301 10.1335 4.99967 10.0668 4.93301L8.90016 3.76634C8.8335 3.69967 8.75016 3.66634 8.65016 3.66634C8.55016 3.66634 8.46683 3.69967 8.40016 3.76634L4.50016 7.69967V9.33301ZM1.8335 14.6663V2.66634C1.8335 2.29967 1.96405 1.98579 2.22516 1.72467C2.48627 1.46356 2.80016 1.33301 3.16683 1.33301H13.8335C14.2002 1.33301 14.5141 1.46356 14.7752 1.72467C15.0363 1.98579 15.1668 2.29967 15.1668 2.66634V10.6663C15.1668 11.033 15.0363 11.3469 14.7752 11.608C14.5141 11.8691 14.2002 11.9997 13.8335 11.9997H4.50016L1.8335 14.6663ZM3.16683 11.4497L3.95016 10.6663H13.8335V2.66634H3.16683V11.4497Z" fill="#127E96"/>
</g>
</svg>
