<svg width="26" height="27" viewBox="0 0 26 27" fill="none" xmlns="http://www.w3.org/2000/svg">
<rect y="0.828125" width="25.9992" height="25.3396" rx="5.13346" fill="#5E548E"/>
<path d="M10.75 8.24609H9.25C8.85218 8.24609 8.47064 8.40413 8.18934 8.68543C7.90804 8.96674 7.75 9.34827 7.75 9.74609V18.7461C7.75 19.1439 7.90804 19.5254 8.18934 19.8068C8.47064 20.0881 8.85218 20.2461 9.25 20.2461H16.75C17.1478 20.2461 17.5294 20.0881 17.8107 19.8068C18.092 19.5254 18.25 19.1439 18.25 18.7461V9.74609C18.25 9.34827 18.092 8.96674 17.8107 8.68543C17.5294 8.40413 17.1478 8.24609 16.75 8.24609H15.25" stroke="white" stroke-width="1.5" stroke-linecap="round" stroke-linejoin="round"/>
<path d="M13.75 6.74609H12.25C11.4216 6.74609 10.75 7.41767 10.75 8.24609C10.75 9.07452 11.4216 9.74609 12.25 9.74609H13.75C14.5784 9.74609 15.25 9.07452 15.25 8.24609C15.25 7.41767 14.5784 6.74609 13.75 6.74609Z" stroke="white" stroke-width="1.5" stroke-linecap="round" stroke-linejoin="round"/>
<path d="M10.75 17.2461V13.4961M13 17.2461V16.4961M15.25 17.2461V14.9961" stroke="white" stroke-width="1.5" stroke-linecap="round" stroke-linejoin="round"/>
</svg>
