<svg width="26" height="27" viewBox="0 0 26 27" fill="none" xmlns="http://www.w3.org/2000/svg">
<rect y="0.832031" width="25.9992" height="25.3396" rx="5.13346" fill="#B7094C"/>
<mask id="mask0_4207_35644" style="mask-type:alpha" maskUnits="userSpaceOnUse" x="4" y="5" width="18" height="17">
<rect x="4.55469" y="5.05859" width="16.89" height="16.89" fill="#D9D9D9"/>
</mask>
<g mask="url(#mask0_4207_35644)">
<path d="M8.77727 20.5398C8.19081 20.5398 7.69232 20.3346 7.2818 19.9241C6.87128 19.5135 6.66602 19.0151 6.66602 18.4286V16.3173H8.77727V6.46484L9.83289 7.52047L10.8885 6.46484L11.9441 7.52047L12.9998 6.46484L14.0554 7.52047L15.111 6.46484L16.1666 7.52047L17.2223 6.46484L18.2779 7.52047L19.3335 6.46484V18.4286C19.3335 19.0151 19.1283 19.5135 18.7177 19.9241C18.3072 20.3346 17.8087 20.5398 17.2223 20.5398H8.77727ZM17.2223 19.1323C17.4217 19.1323 17.5888 19.0649 17.7237 18.93C17.8586 18.7951 17.926 18.628 17.926 18.4286V8.57609H10.1848V16.3173H16.5185V18.4286C16.5185 18.628 16.586 18.7951 16.7208 18.93C16.8557 19.0649 17.0229 19.1323 17.2223 19.1323ZM10.8885 11.3911V9.98359H15.111V11.3911H10.8885ZM10.8885 13.5023V12.0948H15.111V13.5023H10.8885ZM16.5185 11.3911C16.3191 11.3911 16.152 11.3237 16.0171 11.1888C15.8822 11.0539 15.8148 10.8867 15.8148 10.6873C15.8148 10.4879 15.8822 10.3208 16.0171 10.1859C16.152 10.051 16.3191 9.98359 16.5185 9.98359C16.7179 9.98359 16.8851 10.051 17.0199 10.1859C17.1548 10.3208 17.2223 10.4879 17.2223 10.6873C17.2223 10.8867 17.1548 11.0539 17.0199 11.1888C16.8851 11.3237 16.7179 11.3911 16.5185 11.3911ZM16.5185 13.5023C16.3191 13.5023 16.152 13.4349 16.0171 13.3C15.8822 13.1651 15.8148 12.998 15.8148 12.7986C15.8148 12.5992 15.8822 12.4321 16.0171 12.2972C16.152 12.1623 16.3191 12.0948 16.5185 12.0948C16.7179 12.0948 16.8851 12.1623 17.0199 12.2972C17.1548 12.4321 17.2223 12.5992 17.2223 12.7986C17.2223 12.998 17.1548 13.1651 17.0199 13.3C16.8851 13.4349 16.7179 13.5023 16.5185 13.5023ZM8.77727 19.1323H15.111V17.7248H8.07352V18.4286C8.07352 18.628 8.14096 18.7951 8.27584 18.93C8.41073 19.0649 8.57787 19.1323 8.77727 19.1323Z" fill="white"/>
</g>
</svg>
