<svg width="26" height="27" viewBox="0 0 26 27" fill="none" xmlns="http://www.w3.org/2000/svg">
<rect y="0.828125" width="25.9992" height="25.3396" rx="5.13346" fill="#C781FF"/>
<path d="M9.4375 14.9961C9.28832 14.9961 9.14524 15.0554 9.03975 15.1608C8.93426 15.2663 8.875 15.4094 8.875 15.5586C8.875 15.7078 8.93426 15.8509 9.03975 15.9563C9.14524 16.0618 9.28832 16.1211 9.4375 16.1211H12.0625C12.2117 16.1211 12.3548 16.0618 12.4602 15.9563C12.5657 15.8509 12.625 15.7078 12.625 15.5586C12.625 15.4094 12.5657 15.2663 12.4602 15.1608C12.3548 15.0554 12.2117 14.9961 12.0625 14.9961H9.4375ZM8.875 11.4336C8.875 11.2844 8.93426 11.1413 9.03975 11.0358C9.14524 10.9304 9.28832 10.8711 9.4375 10.8711H12.0625C12.2117 10.8711 12.3548 10.9304 12.4602 11.0358C12.5657 11.1413 12.625 11.2844 12.625 11.4336C12.625 11.5828 12.5657 11.7259 12.4602 11.8313C12.3548 11.9368 12.2117 11.9961 12.0625 11.9961H9.4375C9.28832 11.9961 9.14524 11.9368 9.03975 11.8313C8.93426 11.7259 8.875 11.5828 8.875 11.4336ZM17.335 11.0811C17.4344 10.9745 17.4885 10.8334 17.4859 10.6877C17.4833 10.542 17.4243 10.4029 17.3212 10.2999C17.2182 10.1968 17.0791 10.1378 16.9334 10.1352C16.7877 10.1326 16.6466 10.1867 16.54 10.2861L15.4375 11.3886L15.085 11.0361C15.0335 10.9808 14.9714 10.9365 14.9024 10.9058C14.8334 10.875 14.7589 10.8585 14.6834 10.8572C14.6079 10.8558 14.5328 10.8697 14.4628 10.898C14.3928 10.9263 14.3291 10.9684 14.2757 11.0218C14.2223 11.0752 14.1802 11.1389 14.1519 11.2089C14.1236 11.2789 14.1097 11.354 14.1111 11.4295C14.1124 11.505 14.1289 11.5795 14.1597 11.6485C14.1904 11.7175 14.2347 11.7796 14.29 11.8311L15.04 12.5811C15.1455 12.6864 15.2884 12.7456 15.4375 12.7456C15.5866 12.7456 15.7295 12.6864 15.835 12.5811L17.335 11.0811ZM17.335 14.4111C17.4403 14.5166 17.4995 14.6595 17.4995 14.8086C17.4995 14.9577 17.4403 15.1006 17.335 15.2061L15.835 16.7061C15.7295 16.8114 15.5866 16.8706 15.4375 16.8706C15.2884 16.8706 15.1455 16.8114 15.04 16.7061L14.29 15.9561C14.2347 15.9046 14.1904 15.8425 14.1597 15.7735C14.1289 15.7045 14.1124 15.63 14.1111 15.5545C14.1097 15.479 14.1236 15.4039 14.1519 15.3339C14.1802 15.2639 14.2223 15.2002 14.2757 15.1468C14.3291 15.0934 14.3928 15.0513 14.4628 15.023C14.5328 14.9947 14.6079 14.9808 14.6834 14.9822C14.7589 14.9835 14.8334 15 14.9024 15.0308C14.9714 15.0615 15.0335 15.1058 15.085 15.1611L15.4375 15.5136L16.54 14.4111C16.6455 14.3058 16.7884 14.2466 16.9375 14.2466C17.0866 14.2466 17.2295 14.3058 17.335 14.4111ZM8.6875 6.74609C8.04103 6.74609 7.42105 7.0029 6.96393 7.46002C6.50681 7.91714 6.25 8.53713 6.25 9.18359V17.8086C6.25 18.4551 6.50681 19.075 6.96393 19.5322C7.42105 19.9893 8.04103 20.2461 8.6875 20.2461H17.3125C17.959 20.2461 18.579 19.9893 19.0361 19.5322C19.4932 19.075 19.75 18.4551 19.75 17.8086V9.18359C19.75 8.53713 19.4932 7.91714 19.0361 7.46002C18.579 7.0029 17.959 6.74609 17.3125 6.74609H8.6875ZM7.375 9.18359C7.375 8.45909 7.963 7.87109 8.6875 7.87109H17.3125C18.037 7.87109 18.625 8.45909 18.625 9.18359V17.8086C18.625 18.1567 18.4867 18.4905 18.2406 18.7367C17.9944 18.9828 17.6606 19.1211 17.3125 19.1211H8.6875C8.3394 19.1211 8.00556 18.9828 7.75942 18.7367C7.51328 18.4905 7.375 18.1567 7.375 17.8086V9.18359Z" fill="white"/>
</svg>
