<svg width="17" height="16" viewBox="0 0 17 16" fill="none" xmlns="http://www.w3.org/2000/svg">
<mask id="mask0_7084_41555" style="mask-type:alpha" maskUnits="userSpaceOnUse" x="0" y="0" width="17" height="16">
<rect x="0.5" width="16" height="16" fill="#D9D9D9"/>
</mask>
<g mask="url(#mask0_7084_41555)">
<path d="M7.79984 11.9997L11.5665 8.23301L10.5998 7.26634L7.78317 10.083L6.38317 8.68301L5.43317 9.63301L7.79984 11.9997ZM4.49984 14.6663C4.13317 14.6663 3.81928 14.5358 3.55817 14.2747C3.29706 14.0136 3.1665 13.6997 3.1665 13.333V2.66634C3.1665 2.29967 3.29706 1.98579 3.55817 1.72467C3.81928 1.46356 4.13317 1.33301 4.49984 1.33301H9.83317L13.8332 5.33301V13.333C13.8332 13.6997 13.7026 14.0136 13.4415 14.2747C13.1804 14.5358 12.8665 14.6663 12.4998 14.6663H4.49984ZM9.1665 5.99967V2.66634H4.49984V13.333H12.4998V5.99967H9.1665Z" fill="#127E96"/>
</g>
</svg>
