<svg width="65" height="64" viewBox="0 0 65 64" fill="none" xmlns="http://www.w3.org/2000/svg">
<circle cx="32.5" cy="32" r="32" fill="#C9184A"/>
<g clip-path="url(#clip0_1636_27194)">
<path d="M32.4998 30.6666C34.2679 30.6666 35.9636 31.369 37.2139 32.6192C38.4641 33.8695 39.1665 35.5652 39.1665 37.3333V45.3333H25.8332V37.3333C25.8332 35.5652 26.5355 33.8695 27.7858 32.6192C29.036 31.369 30.7317 30.6666 32.4998 30.6666ZM23.5505 34.6746C23.3383 35.3903 23.213 36.129 23.1772 36.8746L23.1665 37.3333V45.3333H19.1665V39.3333C19.1662 38.1834 19.5905 37.0739 20.358 36.2176C21.1255 35.3613 22.1821 34.8185 23.3252 34.6933L23.5518 34.6746H23.5505ZM41.4492 34.6746C42.6357 34.7469 43.75 35.2692 44.5646 36.1349C45.3793 37.0006 45.833 38.1445 45.8332 39.3333V45.3333H41.8332V37.3333C41.8332 36.4093 41.6998 35.5173 41.4492 34.6746ZM23.8332 26.6666C24.7172 26.6666 25.5651 27.0178 26.1902 27.6429C26.8153 28.2681 27.1665 29.1159 27.1665 30C27.1665 30.884 26.8153 31.7319 26.1902 32.357C25.5651 32.9821 24.7172 33.3333 23.8332 33.3333C22.9491 33.3333 22.1013 32.9821 21.4761 32.357C20.851 31.7319 20.4998 30.884 20.4998 30C20.4998 29.1159 20.851 28.2681 21.4761 27.6429C22.1013 27.0178 22.9491 26.6666 23.8332 26.6666ZM41.1665 26.6666C42.0506 26.6666 42.8984 27.0178 43.5235 27.6429C44.1486 28.2681 44.4998 29.1159 44.4998 30C44.4998 30.884 44.1486 31.7319 43.5235 32.357C42.8984 32.9821 42.0506 33.3333 41.1665 33.3333C40.2824 33.3333 39.4346 32.9821 38.8095 32.357C38.1844 31.7319 37.8332 30.884 37.8332 30C37.8332 29.1159 38.1844 28.2681 38.8095 27.6429C39.4346 27.0178 40.2824 26.6666 41.1665 26.6666ZM32.4998 18.6666C33.9143 18.6666 35.2709 19.2285 36.2711 20.2287C37.2713 21.2289 37.8332 22.5855 37.8332 24C37.8332 25.4144 37.2713 26.771 36.2711 27.7712C35.2709 28.7714 33.9143 29.3333 32.4998 29.3333C31.0854 29.3333 29.7288 28.7714 28.7286 27.7712C27.7284 26.771 27.1665 25.4144 27.1665 24C27.1665 22.5855 27.7284 21.2289 28.7286 20.2287C29.7288 19.2285 31.0854 18.6666 32.4998 18.6666Z" fill="white"/>
</g>
<defs>
<clipPath id="clip0_1636_27194">
<rect width="32" height="32" fill="white" transform="translate(16.5 16)"/>
</clipPath>
</defs>
</svg>
