<svg width="26" height="27" viewBox="0 0 26 27" fill="none" xmlns="http://www.w3.org/2000/svg">
<rect y="0.828125" width="25.9992" height="25.3396" rx="5.13346" fill="#78F48C"/>
<path d="M20.4184 9.49535C20.7081 9.785 20.8529 10.1192 20.8529 10.498C20.8529 10.8768 20.7081 11.211 20.4184 11.5006C20.1288 11.768 19.7946 11.9017 19.4158 11.9017H19.3824C19.2264 11.9017 19.115 11.8905 19.0482 11.8682L16.5082 14.4082C16.5527 14.5419 16.575 14.6645 16.575 14.7759C16.575 15.1546 16.4302 15.4888 16.1406 15.7785C15.8509 16.0459 15.5167 16.1795 15.1379 16.1795C14.7592 16.1795 14.4249 16.0459 14.1353 15.7785C13.8457 15.4888 13.7008 15.1546 13.7008 14.7759C13.7008 14.6645 13.7231 14.5419 13.7677 14.4082L11.9295 12.5701C11.7958 12.6146 11.6733 12.6369 11.5619 12.6369C11.4505 12.6369 11.3279 12.6146 11.1943 12.5701L7.95242 15.8119C7.99698 15.9456 8.01926 16.0681 8.01926 16.1795C8.01926 16.5583 7.87444 16.8925 7.58479 17.1822C7.29514 17.4718 6.96093 17.6166 6.58216 17.6166C6.20339 17.6166 5.86918 17.4718 5.57953 17.1822C5.28988 16.8925 5.14506 16.5583 5.14506 16.1795C5.14506 15.8008 5.28988 15.4777 5.57953 15.2103C5.86918 14.9207 6.20339 14.7759 6.58216 14.7759C6.76041 14.7759 6.88295 14.787 6.94979 14.8093L10.1916 11.5675C10.1693 11.5006 10.1582 11.3781 10.1582 11.1998C10.1582 10.8211 10.2919 10.4868 10.5593 10.1972C10.8489 9.90755 11.1831 9.76272 11.5619 9.76272C11.9407 9.76272 12.2749 9.90755 12.5645 10.1972C12.8542 10.4868 12.999 10.8211 12.999 11.1998C12.999 11.3781 12.9878 11.5006 12.9656 11.5675L14.7703 13.3722C14.8371 13.3499 14.9597 13.3388 15.1379 13.3388C15.3162 13.3388 15.4387 13.3499 15.5056 13.3722L18.0456 10.8656C18.001 10.7319 17.9787 10.6094 17.9787 10.498C17.9787 10.1192 18.1235 9.785 18.4132 9.49535C18.7028 9.2057 19.037 9.06088 19.4158 9.06088C19.7946 9.06088 20.1288 9.2057 20.4184 9.49535Z" fill="#F7F7F7"/>
</svg>
