<svg width="26" height="27" viewBox="0 0 26 27" fill="none" xmlns="http://www.w3.org/2000/svg">
<rect y="0.828125" width="25.9992" height="25.3396" rx="5.13346" fill="#FF5D8F"/>
<path d="M11.5 6.74609H14.5C16.0913 6.74609 17.6174 7.37823 18.7426 8.50345C19.8679 9.62867 20.5 11.1548 20.5 12.7461C20.5 14.3374 19.8679 15.8635 18.7426 16.9887C17.6174 18.114 16.0913 18.7461 14.5 18.7461V21.3711C10.75 19.8711 5.5 17.6211 5.5 12.7461C5.5 11.1548 6.13214 9.62867 7.25736 8.50345C8.38258 7.37823 9.9087 6.74609 11.5 6.74609ZM13 17.2461H14.5C15.0909 17.2461 15.6761 17.1297 16.2221 16.9036C16.768 16.6774 17.2641 16.3459 17.682 15.9281C18.0998 15.5102 18.4313 15.0141 18.6575 14.4682C18.8836 13.9222 19 13.337 19 12.7461C19 12.1551 18.8836 11.57 18.6575 11.024C18.4313 10.4781 18.0998 9.98198 17.682 9.56411C17.2641 9.14625 16.768 8.81478 16.2221 8.58864C15.6761 8.36249 15.0909 8.24609 14.5 8.24609H11.5C10.3065 8.24609 9.16193 8.7202 8.31802 9.56411C7.47411 10.408 7 11.5526 7 12.7461C7 15.4536 8.8465 17.2206 13 19.1061V17.2461Z" fill="white"/>
</svg>
