<svg width="22" height="21" viewBox="0 0 22 21" fill="none" xmlns="http://www.w3.org/2000/svg">
<g clip-path="url(#clip0_4207_34264)">
<g clip-path="url(#clip1_4207_34264)">
<path d="M6.87594 12.7661L5.10928 14.5344L7.46594 16.8911L16.8934 7.46274L14.5368 5.10691L12.7676 6.87357L13.9468 8.05191L12.7676 9.23191L11.5893 8.05274L10.4109 9.23191L11.5893 10.4102L10.4109 11.5886L9.23261 10.4102L8.05344 11.5886L9.23261 12.7669L8.05344 13.9461L6.87594 12.7652V12.7661ZM15.1259 3.33857L18.6609 6.87357C18.8172 7.02985 18.9049 7.24177 18.9049 7.46274C18.9049 7.68371 18.8172 7.89563 18.6609 8.05191L8.05427 18.6586C7.898 18.8148 7.68608 18.9026 7.46511 18.9026C7.24414 18.9026 7.03222 18.8148 6.87594 18.6586L3.34094 15.1236C3.18472 14.9673 3.09695 14.7554 3.09695 14.5344C3.09695 14.3134 3.18472 14.1015 3.34094 13.9452L13.9476 3.33857C14.1039 3.18235 14.3158 3.09458 14.5368 3.09458C14.7577 3.09458 14.9697 3.18235 15.1259 3.33857ZM12.7676 16.3011L13.9468 15.1227L15.8151 16.9919H16.9934V15.8136L15.1251 13.9444L16.3034 12.7661L18.5009 14.9627V18.4986H14.9659L12.7684 16.3011H12.7676ZM5.69761 9.23024L3.34011 6.87357C3.26263 6.79618 3.20116 6.70427 3.15923 6.60311C3.11729 6.50194 3.0957 6.3935 3.0957 6.28399C3.0957 6.17448 3.11729 6.06604 3.15923 5.96487C3.20116 5.86371 3.26263 5.7718 3.34011 5.69441L5.69761 3.33774C5.85388 3.18151 6.06581 3.09375 6.28678 3.09375C6.50775 3.09375 6.71967 3.18151 6.87594 3.33774L9.23428 5.69441L8.05427 6.87357L6.28678 5.10524L5.10844 6.28441L6.87594 8.05107L5.69761 9.23024V9.23024Z" fill="white"/>
</g>
</g>
<defs>
<clipPath id="clip0_4207_34264">
<rect width="20.7994" height="20.2717" fill="white" transform="translate(0.599609 0.363281)"/>
</clipPath>
<clipPath id="clip1_4207_34264">
<rect width="20" height="20" fill="white" transform="translate(1 1)"/>
</clipPath>
</defs>
</svg>
