<svg width="26" height="27" viewBox="0 0 26 27" fill="none" xmlns="http://www.w3.org/2000/svg">
<rect y="0.828125" width="25.9992" height="25.3396" rx="5.13346" fill="#197278"/>
<g clip-path="url(#clip0_4207_34263)">
<g clip-path="url(#clip1_4207_34263)">
<path d="M8.87594 15.7661L7.10928 17.5344L9.46594 19.8911L18.8934 10.4627L16.5368 8.10691L14.7676 9.87357L15.9468 11.0519L14.7676 12.2319L13.5893 11.0527L12.4109 12.2319L13.5893 13.4102L12.4109 14.5886L11.2326 13.4102L10.0534 14.5886L11.2326 15.7669L10.0534 16.9461L8.87594 15.7652V15.7661ZM17.1259 6.33857L20.6609 9.87357C20.8172 10.0298 20.9049 10.2418 20.9049 10.4627C20.9049 10.6837 20.8172 10.8956 20.6609 11.0519L10.0543 21.6586C9.898 21.8148 9.68608 21.9026 9.46511 21.9026C9.24414 21.9026 9.03222 21.8148 8.87594 21.6586L5.34094 18.1236C5.18472 17.9673 5.09695 17.7554 5.09695 17.5344C5.09695 17.3134 5.18472 17.1015 5.34094 16.9452L15.9476 6.33857C16.1039 6.18235 16.3158 6.09458 16.5368 6.09458C16.7577 6.09458 16.9697 6.18235 17.1259 6.33857ZM14.7676 19.3011L15.9468 18.1227L17.8151 19.9919H18.9934V18.8136L17.1251 16.9444L18.3034 15.7661L20.5009 17.9627V21.4986H16.9659L14.7684 19.3011H14.7676ZM7.69761 12.2302L5.34011 9.87357C5.26263 9.79618 5.20116 9.70427 5.15923 9.60311C5.11729 9.50194 5.0957 9.3935 5.0957 9.28399C5.0957 9.17448 5.11729 9.06604 5.15923 8.96487C5.20116 8.86371 5.26263 8.7718 5.34011 8.69441L7.69761 6.33774C7.85388 6.18151 8.0658 6.09375 8.28678 6.09375C8.50775 6.09375 8.71967 6.18151 8.87594 6.33774L11.2343 8.69441L10.0543 9.87357L8.28678 8.10524L7.10844 9.28441L8.87594 11.0511L7.69761 12.2302Z" fill="white"/>
</g>
</g>
<defs>
<clipPath id="clip0_4207_34263">
<rect width="20.7994" height="20.2717" fill="white" transform="translate(2.59961 3.36328)"/>
</clipPath>
<clipPath id="clip1_4207_34263">
<rect width="20" height="20" fill="white" transform="translate(3 4)"/>
</clipPath>
</defs>
</svg>
