<svg width="26" height="27" viewBox="0 0 26 27" fill="none" xmlns="http://www.w3.org/2000/svg">
<rect y="0.828125" width="25.9992" height="25.3396" rx="5.13346" fill="#FFBD70"/>
<path d="M19 8.99609H13L11.9425 7.93859C11.6575 7.65359 11.275 7.49609 10.8775 7.49609H7C6.175 7.49609 5.5075 8.17109 5.5075 8.99609L5.5 17.9961C5.5 18.8211 6.175 19.4961 7 19.4961H19C19.825 19.4961 20.5 18.8211 20.5 17.9961V10.4961C20.5 9.67109 19.825 8.99609 19 8.99609ZM18.25 17.9961H7.75C7.3375 17.9961 7 17.6586 7 17.2461V11.2461C7 10.8336 7.3375 10.4961 7.75 10.4961H18.25C18.6625 10.4961 19 10.8336 19 11.2461V17.2461C19 17.6586 18.6625 17.9961 18.25 17.9961Z" fill="white"/>
</svg>
