<svg width="64" height="64" viewBox="0 0 64 64" fill="none" xmlns="http://www.w3.org/2000/svg">
<circle cx="32" cy="32" r="32" fill="#0077B6"/>
<path d="M21.3332 42.6667C20.5998 42.6667 19.9723 42.4058 19.4505 41.884C18.9278 41.3614 18.6665 40.7334 18.6665 40V24C18.6665 23.2667 18.9278 22.6392 19.4505 22.1174C19.9723 21.5947 20.5998 21.3334 21.3332 21.3334H42.6665C43.3998 21.3334 44.0278 21.5947 44.5505 22.1174C45.0723 22.6392 45.3332 23.2667 45.3332 24V40C45.3332 40.7334 45.0723 41.3614 44.5505 41.884C44.0278 42.4058 43.3998 42.6667 42.6665 42.6667H21.3332ZM31.9998 33.1C32.1109 33.1 32.2274 33.0832 32.3492 33.0494C32.4718 33.0165 32.5887 32.9667 32.6998 32.9L42.1332 27C42.3109 26.8889 42.4443 26.7503 42.5332 26.584C42.6221 26.4169 42.6665 26.2334 42.6665 26.0334C42.6665 25.5889 42.4776 25.2556 42.0998 25.0334C41.7221 24.8112 41.3332 24.8223 40.9332 25.0667L31.9998 30.6667L23.0665 25.0667C22.6665 24.8223 22.2776 24.8165 21.8998 25.0494C21.5221 25.2832 21.3332 25.6112 21.3332 26.0334C21.3332 26.2556 21.3776 26.4498 21.4665 26.616C21.5554 26.7832 21.6887 26.9112 21.8665 27L31.2998 32.9C31.4109 32.9667 31.5278 33.0165 31.6505 33.0494C31.7723 33.0832 31.8887 33.1 31.9998 33.1Z" fill="white"/>
</svg>
