<svg width="18" height="19" viewBox="0 0 18 19" fill="none" xmlns="http://www.w3.org/2000/svg">
<path d="M3.75 10.5044C3.55109 10.5044 3.36032 10.5834 3.21967 10.7241C3.07902 10.8648 3 11.0555 3 11.2544V14.2544C3 14.4533 3.07902 14.6441 3.21967 14.7848C3.36032 14.9254 3.55109 15.0044 3.75 15.0044C3.94891 15.0044 4.13968 14.9254 4.28033 14.7848C4.42098 14.6441 4.5 14.4533 4.5 14.2544V14.0054H4.9995C5.46376 14.0054 5.90901 13.821 6.23729 13.4927C6.56557 13.1644 6.75 12.7192 6.75 12.2549C6.75 11.7907 6.56557 11.3454 6.23729 11.0171C5.90901 10.6889 5.46376 10.5044 4.9995 10.5044H3.75ZM4.9995 12.5054H4.5V12.0044H4.9995C5.06594 12.0044 5.12965 12.0308 5.17663 12.0778C5.22361 12.1248 5.25 12.1885 5.25 12.2549C5.25 12.3214 5.22361 12.3851 5.17663 12.4321C5.12965 12.479 5.06594 12.5054 4.9995 12.5054ZM12.0015 11.2529C12.0019 11.0543 12.0811 10.8639 12.2217 10.7236C12.3623 10.5832 12.5528 10.5044 12.7515 10.5044H14.2485C14.4474 10.5044 14.6382 10.5834 14.7788 10.7241C14.9195 10.8648 14.9985 11.0555 14.9985 11.2544C14.9985 11.4533 14.9195 11.6441 14.7788 11.7848C14.6382 11.9254 14.4474 12.0044 14.2485 12.0044H13.4985V12.5069H14.2485C14.4474 12.5069 14.6382 12.5859 14.7788 12.7266C14.9195 12.8673 14.9985 13.058 14.9985 13.2569C14.9985 13.4558 14.9195 13.6466 14.7788 13.7873C14.6382 13.9279 14.4474 14.0069 14.2485 14.0069H13.5V14.2529C13.5002 14.3514 13.481 14.449 13.4435 14.5401C13.406 14.6311 13.3509 14.7139 13.2814 14.7837C13.141 14.9246 12.9504 15.004 12.7515 15.0044C12.5526 15.0048 12.3617 14.9262 12.2207 14.7858C12.0798 14.6454 12.0004 14.4548 12 14.2559V11.2529H12.0015ZM8.247 10.5044C8.04809 10.5044 7.85732 10.5834 7.71667 10.7241C7.57602 10.8648 7.497 11.0555 7.497 11.2544V14.2544C7.497 14.4533 7.57602 14.6441 7.71667 14.7848C7.85732 14.9254 8.04809 15.0044 8.247 15.0044H9C9.59674 15.0044 10.169 14.7674 10.591 14.3454C11.0129 13.9235 11.25 13.3512 11.25 12.7544C11.25 12.1577 11.0129 11.5854 10.591 11.1634C10.169 10.7415 9.59674 10.5044 9 10.5044H8.247ZM8.997 13.5044V12.0044H9C9.19891 12.0044 9.38968 12.0834 9.53033 12.2241C9.67098 12.3648 9.75 12.5555 9.75 12.7544C9.75 12.9533 9.67098 13.1441 9.53033 13.2848C9.38968 13.4254 9.19891 13.5044 9 13.5044H8.997ZM10.5 0.00292969H3.75C3.15326 0.00292969 2.58097 0.239982 2.15901 0.661939C1.73705 1.0839 1.5 1.65619 1.5 2.25293V7.62593C1.06089 7.78118 0.680782 8.06887 0.41211 8.44931C0.143438 8.82975 -0.000552971 9.28419 1.59588e-06 9.74993V15.7544C1.59588e-06 16.3512 0.237055 16.9235 0.659011 17.3454C1.08097 17.7674 1.65326 18.0044 2.25 18.0044H15.75C16.3467 18.0044 16.919 17.7674 17.341 17.3454C17.7629 16.9235 18 16.3512 18 15.7544V9.74843C18.0002 9.28294 17.8561 8.82883 17.5875 8.44869C17.3188 8.06855 16.9389 7.78109 16.5 7.62593V5.99993H12.75C12.1533 5.99993 11.581 5.76288 11.159 5.34092C10.7371 4.91896 10.5 4.34667 10.5 3.74993V0.00292969ZM2.25 8.99843H15.75C15.9489 8.99843 16.1397 9.07745 16.2803 9.2181C16.421 9.35875 16.5 9.54952 16.5 9.74843V15.7529C16.5 15.9518 16.421 16.1426 16.2803 16.2833C16.1397 16.4239 15.9489 16.5029 15.75 16.5029H2.25C2.05109 16.5029 1.86032 16.4239 1.71967 16.2833C1.57902 16.1426 1.5 15.9518 1.5 15.7529V9.74843C1.5 9.54952 1.57902 9.35875 1.71967 9.2181C1.86032 9.07745 2.05109 8.99843 2.25 8.99843ZM16.059 4.49843H12.75C12.5511 4.49843 12.3603 4.41941 12.2197 4.27876C12.079 4.13811 12 3.94734 12 3.74843V0.44693L16.059 4.49843Z" fill="#43A6DD"/>
</svg>
